<?xml version="1.0" encoding="utf-8"?>
<!-- Generator: Adobe Illustrator 30.0.0, SVG Export Plug-In . SVG Version: 9.03 Build 0)  -->
<svg version="1.0" id="Layer_1" xmlns="http://www.w3.org/2000/svg" xmlns:xlink="http://www.w3.org/1999/xlink" x="0px" y="0px"
	 viewBox="0 0 72 51.81" style="enable-background:new 0 0 72 51.81;" xml:space="preserve">
<style type="text/css">
	.st0{fill-rule:evenodd;clip-rule:evenodd;}
</style>
<path class="st0" d="M71.46,40.1c-0.2-0.08-0.24-0.1-0.45-0.14c-1.62-0.31-2.98-0.61-4.88-0.87c-1.46-0.2-3.39-0.41-3.39-0.41
	s-0.04-0.49-0.09-0.82c-0.06-0.46-0.25-1.15-0.41-1.5c-0.23-0.51-0.61-0.97-0.78-1.44c-0.08-0.21-0.11-0.42-0.17-0.63
	c-0.11-0.41-0.35-0.84-0.75-1.51C60.34,32.43,60.08,32,60.08,32s0.42,0.11,0.69,0.15c0.59,0.09,1.67,0.05,1.7-0.27
	c0.05-0.6-0.95-0.62-1.65-0.99c-0.41-0.22-1.17-0.96-1.39-1.39c-0.21-0.4-0.42-1.02-0.42-1.02s2.32-1.09,2.73-1.46
	c0.14-0.12,0.64-1.34,0.73-1.77c0.18-0.85,0.6-1.95,0.86-3c0.78-3.15,0.76-6.54,0.38-9.61c-0.09-0.76-0.21-1.55-0.4-2.14
	c-0.21-0.65-0.53-1.7-0.53-2.02c-0.01-0.71,0.18-1.69,0.18-1.69S62.14,7,61.6,7.2c-0.44,0.16-0.83,0.4-1.13,0.65
	c-2.3,1.95-3.22,3.68-5.13,4.82c-0.58,0.34-3.1,1.56-3.73,1.76c-1.13,0.35-2.96,0.52-3.78,0.84c-0.89,0.34-1.94,0.92-1.94,0.92
	s-0.67-0.78-1.22-1.37c-0.98-1.05-3.79-3.4-5.12-3.88c-0.61-0.22-1.19-0.29-1.87-0.11c-1.09,0.29-2.56,0.91-3.63,1.17
	c-0.08,0.02-0.15,0.04-0.23,0.03c-0.1,0-0.14-0.01-0.33-0.1l-1.82-0.81l-0.2-0.03c0,0,0.02-0.04,0.03-0.07
	c0.02-0.08-0.24-0.18-0.49-0.2c-1.87-0.17-2.94,0.49-4.91,1.65c-0.36,0.21-0.65,0.38-1.08,0.75c-0.56,0.47-1.34,1.26-1.34,1.26
	s-0.79-0.57-1.33-1.04c-1.61-1.41-3.11-4.63-3.58-6.67c-0.71-3.12-0.34-3.86-1.45-5.92C17.08,0.4,17,0.39,16.53,0.09
	c-0.2-0.13-0.29-0.14-0.28,0.28c0,0.17,0.04,0.32,0.05,0.49c0.15,1.91-2.67,3.8-3.8,4.73c-1.38,1.13-1.71,2.05-2.03,3.75
	c-0.74,4.02-0.06,6.62,1.35,10.29c0.27,0.7,0.69,1.65,1,2.13c0.69,1.05,1.66,2.65,1.61,2.73c-0.03,0.05-0.09,0.1-0.19,0.14
	c-0.16,0.07-0.41,0.15-0.62,0.26c-0.34,0.18-1.17,0.97-1.4,1.31c-0.12,0.17-0.57,0.91-0.53,0.98c0.09,0.15,0.58,0.33,0.58,0.33
	s0.42-0.38,0.73-0.6c0.44-0.3,1.22-0.44,1.89-0.42c0.28,0.01,0.62,0.04,0.62,0.04s-0.85,0.8-1.43,1.38
	c-0.59,0.6-1.29,1.54-1.96,1.84c-0.82,0.36-1.24,0.2-1.09,0.75c0.1,0.37,0.33,0.26,0.79,0.28c0.51,0.02,0.84,0.26,1.25,0.09
	c0.17-0.07,0.29-0.23,0.6-0.31c0.11-0.03,0.23-0.05,0.23-0.05s-0.12,0.33-0.24,0.58c-0.3,0.62-0.59,0.74-0.97,1.3
	c-0.32,0.48-0.7,1.28-0.7,1.28s-0.7-0.18-1.32-0.32c-0.76-0.17-3.6-0.52-4.41-0.54c-0.29-0.01-4.97-0.23-5.36,0.01
	c-0.13,0.08-0.21,0.2-0.16,0.28c0.04,0.06,0.16,0.09,0.29,0.12c0.78,0.16,2.24,0.05,4.02,0.12c1.93,0.08,6.76,0.76,6.76,0.76
	s-0.03,0.54,0,0.93c0.04,0.54,0.23,0.88,0.48,0.88c0.38,0.01,0.26-0.17,0.3-0.47c0.05-0.37,0.4-1.08,0.4-1.08l1.24,0.14
	c0,0-0.19,0.88-0.29,1.4c-0.08,0.43-0.11,0.61-0.06,1.09c0.03,0.27,0.07,0.62,0.07,0.62s-0.77-0.09-1.39-0.14
	c-3.81-0.34-6.98,0.2-10.47,0.55c-1.44,0.14-2.19,0.22-2.09,0.59c0.02,0.08,9.72-0.4,10.72-0.53c0.49-0.06,2.87,0.01,3.26,0.11
	c0.42,0.1,0.9,0.24,0.9,0.24s-1.05,2.25-1.08,2.67c-0.01,0.14,0.09,0.35,0.31,0.36c0.15,0.01,0.23-0.18,0.44-0.42
	c0.18-0.2,0.41-0.35,0.63-0.38c0.31-0.05,0.9-0.03,0.9-0.03l0.5,1.22c0,0-0.61,0.19-0.98,0.24c-0.24,0.04-0.38,0.02-0.52,0.06
	c-0.15,0.04-0.29,0.15-0.44,0.24c-0.26,0.17-3.69,1.23-5.68,1.8c-0.69,0.2-3.46,1.35-4.04,1.67c-0.29,0.16-3.06,1.77-3.46,2.34
	c-0.1,0.14-0.22,0.32-0.19,0.35c0.09,0.11,0.61,0.25,0.61,0.25s0.29-0.25,0.55-0.46c3.68-3,11.99-4.6,15.59-5.39
	c0.21-0.05,0.24-0.05,0.3-0.03c0.24,0.1,0.65,0.68,0.74,0.79c0.02,0.02,0.03,0.04,0.03,0.09c0,0.05-0.02,0.12-0.02,0.12
	s1.3,0.62,1.91,0.71c0.48,0.07,2.18-0.45,2.61-0.38c0.3,0.05,0.6,0.3,0.98,0.66c1.18,1.13,3.04,3.58,4.63,5.19
	c1.16,1.18,1.56,1.56,3.37,1.77c1.68,0.19,5.49-0.49,6.4-1.07c1.06-0.68,2.6-2.26,2.89-2.32c0.14-0.03,0.39,0.07,0.59,0.24
	c0.53,0.45,0.55,0.52,0.98,0.66c0.48,0.16,2.47,0.51,2.67,0.46c0.53-0.13,0.93-0.51,1.45-0.6c0.2-0.03,0.55-0.04,0.76,0.02
	c0.35,0.09,0.67,0.34,1,0.42c0.27,0.06,1.41-0.09,1.73-0.18c1.14-0.33,1.27-0.65,1.94-1.47c0.22-0.28,0.31-0.28,0.52-0.13
	c0.18,0.13,0.46,0.36,0.54,0.57c0.11,0.27,0.02,0.53,0.3,0.55c0.37,0.03,1.09-1.28,1.27-1.67c0.26-0.54,0.56-1.35,0.56-1.35
	s2.12,0.91,3.82,1.67c1.16,0.52,4.84,2.45,5.41,2.84c0.42,0.28,0.93,0.63,1.56,0.9c0.17,0.08,0.37,0.15,0.37,0.15l0.19-0.46
	l-8.57-4.57c-0.19-0.1-0.23-0.13-0.39-0.27c-0.91-0.77-1.17-1.13-1.35-2.15c-0.08-0.47-0.13-1.09,0.06-1.18
	c0.23-0.11,0.31,0.25,0.48,0.56c0.21,0.37,0.9,0.74,1.41,0.69c0.15-0.01,0.29-0.12,0.29-0.29c0-0.04-0.01-0.08-0.04-0.12
	c-0.07-0.08-0.26-0.14-0.28-0.28c-0.01-0.07,0.03-0.16,0.03-0.16s0.47,0.05,0.9,0.11c0.53,0.07,3.9,1.05,4.5,1.31
	c0.69,0.3,1.43,0.62,2.2,0.82c0.67,0.18,1.36,0.28,2.01,0.45c0.22,0.06,0.43,0.12,0.6,0.24c0.27,0.19,0.28,0.19,0.64-0.17
	c0.15-0.15,0.05-0.28-0.2-0.45c-0.18-0.12-1.58-0.44-2.6-0.6c-0.94-0.15-5.64-1.79-7.77-2.4c-0.61-0.18-0.68-0.18-0.71-0.72
	c-0.04-0.7-0.16-2.3-0.16-2.3s0.1,0.03,0.18,0.07c0.12,0.07,0.2,0.32,0.22,0.52c0.08,0.68,0.31,1.18,0.9,1.49
	c0.3,0.16,0.79,0.13,0.76-0.23c-0.01-0.15-0.19-0.32-0.26-0.51c-0.04-0.11-0.04-0.23-0.02-0.35c0.03-0.22,0.11-0.46,0.13-0.72
	c0.03-0.45-0.18-1.04,0-1.14c0.21-0.12,1,0.13,1.06,0.21c0.33,0.49-0.04,1.9,0.55,1.6c0.16-0.08,0.32-0.28,0.45-0.57
	c0.16-0.37,0.29-0.93,0.29-0.93s2.27,0.26,3.97,0.58c1.98,0.37,3.41,0.84,4.5,0.92c0.2,0.02,0.56,0.06,0.66-0.15
	c0.02-0.04,0.05-0.11,0.05-0.11L71.46,40.1z M49.49,18.65c1.84-0.85,6.82-4.79,8.35-6.32c0.77-0.77,1.34-1.53,2.55-2.63
	c0.7-0.64,1.63-1.39,1.63-1.39l1.21,4.51c0.06,0.21,0.06,0.25,0.04,0.47c-0.18,2.31-0.47,5.84-0.84,8.24
	c-0.25,1.63-0.93,3.42-2.37,4.59c-0.12,0.1-0.23,0.17-0.41,0.26c-0.46,0.23-1.36,0.56-1.36,0.56s-0.07-0.42-0.16-0.71
	c-0.11-0.36-0.26-0.53-0.32-0.78c-0.08-0.3-0.04-0.7-0.16-0.97c-0.07-0.16-0.21-0.27-0.35-0.4c-0.18-0.17-1.5-2.74-1.54-3
	c-0.12-0.7,0.06-1.39,0.57-1.99c0.49-0.58,2.69-2.07,3.02-2.52c0.18-0.24,0.31-0.51,0.43-0.73c0.06-0.11,0.11-0.2,0.15-0.35
	c0.1-0.46-0.04-1.42-0.04-1.42l-4.57,3.55c-0.17,0.13-0.19,0.16-0.25,0.26c-0.04,0.08-0.07,0.16-0.09,0.25
	c-0.26,1.03-0.47,2.72-0.03,3.6c0.16,0.31,0.55,0.7,0.85,1.04c0.18,0.2,1.41,2.92,1.52,3.36c0.17,0.68,0.36,1.5,0.36,1.5
	s-0.72-0.38-1.3-0.63c-0.94-0.41-3.8-1.01-4.83-1.01c-0.8-0.01-1.44,0.13-1.57-0.01c-0.16-0.16-0.13-1.26-0.28-2.13
	c-0.07-0.39-0.19-0.75-0.41-1.28c-0.49-1.18-1.46-3.18-1.46-3.18S48.83,18.96,49.49,18.65z M47.13,24.39c0.19-0.49-0.1-1.87,0-2.37
	c0.07-0.36-0.53-1.58-0.53-1.71c0.07-1.45,1.77,2.17,1.84,2.5c0.41,2.04,0.23,3.94-0.44,5.25c-0.52,1.02-1.5,2.3-2.34,2.77
	c-0.48,0.27-0.32-0.26-0.54-1.25c-0.3-1.35-1.48-1.67-2.6-2.15c-0.78-0.33-4.59-1.35-4.9-1.31c-0.53,0.06-2.21-0.12-2.27-0.24
	c-0.05-0.11,0.62-1.41,1.11-2.47c0.31-0.67,0.35-4.92,0.53-5.06c0.34-0.26,1.44,1.67,1.5,2.43c0.03,0.4,0.22,0.87,0.25,1.06
	c0.04,0.26,0.4,1.33,0.45,1.58c0.12,0.7,1.41,1.9,1.78,2.39c0.76,1.01,2.36,1.53,3.25,1.38C46.1,26.87,46.28,26.58,47.13,24.39z
	 M31,22.66c0.18,0.28,0.46,0.6,0.46,0.6c-0.29,0.23-1.95-0.49-2.22-1.2c-0.23-0.6-0.76-1.9-0.96-2.97
	c-0.03-0.16-0.04-0.83,0.05-0.85c0.51-0.13,3.06,0.08,3.06,0.08s-0.47,0.91-0.58,1.21c-0.15,0.43-0.16,1.42-0.16,1.77
	C30.65,21.61,30.86,22.45,31,22.66z M30.26,24.31c0.74,0.58,1.41,0.63,2.29,0.37c1.85-0.55,2.07-0.9,3.01-2.54
	c0.03-0.05,0.05-0.09,0.1-0.07c0.03,0.01,0.07,0.05,0.07,0.05s-0.13,0.57-0.26,0.98c-0.35,1.12-1.48,2.66-1.55,2.71
	c-0.16,0.11-1.53,0.04-2.55-0.13c-0.45-0.08-0.92-0.11-1.34-0.28c-0.49-0.2-0.54-0.29-0.88-0.15c-0.29,0.12-1.35,1.05-1.66,1.46
	c-0.43,0.57-0.92,1.34-0.92,1.34s-1.19-0.6-2.04-1.19c-1.03-0.71-2.26-2.16-2.68-3.36c-0.36-1.03-0.45-3.42-0.27-3.85
	c0.15-0.37,1.4-0.7,2.14-0.99c0.38-0.15,2.96-0.71,3.47-0.59c0.06,0.02,0.12,0.04,0.18,0.08c0.08,0.06,0.09,0.1,0.12,0.42
	C27.83,21.73,28.42,22.88,30.26,24.31z M31.46,20.45c0-0.47,0.03-1.15,0.12-1.22c0.14-0.12,0.45,0.45,0.56,0.8
	c0.08,0.27,0.09,0.52,0.04,0.99c-0.04,0.36-0.11,0.85-0.11,0.85l-0.05-0.03c-0.02-0.01-0.03-0.01-0.04,0.04
	c-0.06,0.17-0.09,0.14-0.22-0.14C31.48,21.15,31.46,21.03,31.46,20.45z M41.64,23.65c0.12,0.29,0.31,0.78,0.29,1.02
	c-0.01,0.1-0.03,0.21-0.03,0.21s-0.27-0.12-0.47-0.24c-0.55-0.31-1.24-1.04-1.46-1.66c-0.45-1.25-1.16-3.61-1.27-3.8l-0.02,0
	c0-0.02,0.01-0.02,0.02,0l3.04,0.31c0,0-0.24,2.35-0.25,3.2C41.49,23.11,41.52,23.36,41.64,23.65z M42.5,20.64
	c0.03-0.13,0.07-0.27,0.07-0.27l0.26,0.16c0.12,0.07,0.13,0.12,0.1,0.44c-0.06,0.61-0.15,1.68-0.25,1.81
	c-0.1,0.13-0.16-0.19-0.2-0.52C42.42,21.81,42.42,20.98,42.5,20.64z M36.99,12.17c1.85-0.02,3.19,0.55,4.57,1.6
	c1.02,0.79,1.52,1.28,1.99,1.89c0.19,0.24,0.72,1.3,0.77,1.54c0.11,0.54,0.13,1.25,0.13,1.25s-1.89,0.15-3.66-0.34
	c-3.74-1.04-4.18-1.53-4.49-1.41c-0.21,0.08-0.56-1.56-0.71-1.77c-0.45-0.63-1.16-1.77-1.17-1.9
	C34.39,12.47,36.01,12.18,36.99,12.17z M23.95,15.53c0.61-0.92,1.46-1.76,2.64-2.37c0.43-0.22,3.14-1.21,3.97-1.26
	c0.9-0.05,1.43,0.27,2.03,0.82c0.67,0.61,0.81,1.03,1.13,1.94c0.66,1.87,1.23,2.38-0.78,2.04c-2.22-0.37-5.08,0.6-6.11,0.64
	c-1.54,0.05-3.46,0.18-3.46,0.18s-0.03-0.31-0.05-0.5C23.27,16.48,23.48,16.25,23.95,15.53z M13.4,21.39
	c-1.42-2.34-1.93-6.57-2.43-9.95c-0.03-0.21-0.03-0.26,0.04-0.46c0.43-1.32,1.64-2.43,2.57-2.94c0.53-0.29,1.05-0.52,1.91-0.79
	C16.14,7.05,17,6.81,17,6.81s0.15,0.34,0.26,0.62c0.17,0.47,0.2,0.76,0.27,1.1c0.38,1.71,1.53,4.28,2.51,5.33
	c0.74,0.79,2.38,2.12,2.38,2.12s-1.28,2.04-1.78,3.05c-0.5,1.01-0.69,2.27-0.42,3.19c0.29,1,1.11,2.84,1.11,2.84
	s-1.32-0.04-1.96,0.15c-0.33,0.09-0.62,0.23-0.85,0.2c-0.09-0.01-0.2-0.03-0.2-0.03s0.15-0.63,0.21-0.94c0.03-0.18,0.04-0.25,0-0.31
	c-0.09-0.14-0.42-0.2-0.6-0.41c-0.17-0.2-0.3-1.85-0.2-2.22c0.11-0.37,0.45-0.73,0.64-1.14c0.5-1.06,0.29-2.68-0.07-3.65
	c-0.63-1.66-1.28-2.49-2.58-4.03c-0.57-0.67-1.41-1.57-1.73-1.79c-0.2-0.14-0.27-0.14-0.28,0.02c-0.1,1.06,0.96,2.51,1.88,3.22
	c0.23,0.18,0.44,0.29,0.47,0.42c0.05,0.23-0.33,0.61-0.43,1.03c-0.09,0.38,0.11,1.08,0.28,1.6c0.88,2.65,1.71,3.22,1.13,4.93
	c-0.06,0.17-0.12,0.33-0.2,0.49c-0.13,0.25-0.85,0.97-0.98,0.99C15.39,23.66,13.75,21.96,13.4,21.39z M14.07,34.05l-0.15-0.06
	l-0.03,0.07l-0.37-0.15l0.07-0.18l0.52-0.01l-0.03,0.07l0.07,0.03L14.07,34.05z M24.31,43.36c-1.06-0.21-3.31-1.1-3.31-1.1
	s1.26-0.37,2.14-0.54c0.69-0.13,1.15-0.14,1.64-0.22c0.35-0.06,0.73-0.15,1.12-0.22c0.82-0.15,2.8-0.27,4.21-0.37
	c0.21-0.02,0.24-0.03,0.29-0.14l0.1-0.24c0,0-0.2-0.1-0.35-0.15c-0.19-0.06-0.3-0.06-0.43-0.05c-0.67,0.04-1.74,0.1-2.77,0.18
	c-1.51,0.12-5.43,0.7-8.13,1.09c-0.21,0.03-0.25,0.02-0.42-0.11c-0.48-0.38-0.85-0.77-1.1-1.16c-0.38-0.59-1-1.81-1-1.81
	s0.95-0.01,1.76-0.02c0.98-0.01,5.47,0.31,6,0.43c1.52,0.34,4.11,0.8,4.31,0.76c0.14-0.03,0.21-0.14,0.12-0.29
	c-0.05-0.08-0.1-0.14-0.17-0.2c-0.13-0.11-2.17-0.54-2.96-0.63c-2.4-0.26-5.3-0.74-6.59-0.76c-1.8-0.02-2.63,0.22-3.29-0.92
	c-0.1-0.18-0.18-0.35-0.23-0.63c-0.1-0.54-0.12-1.51-0.12-1.51s2.23,0.4,3.77,0.67c1.08,0.19,4.45,1.03,5.16,1.29
	c0.6,0.22,1.3,0.49,1.3,0.49s0.01-0.05,0.03-0.07c0.01-0.02,0.04-0.02,0.06-0.01c0.06,0.01,0.11-0.1,0.12-0.2
	c0.01-0.19-0.26-0.53-0.51-0.66c-0.12-0.06-0.16-0.07-0.37-0.12l-9.2-1.88c-0.21-0.04-0.23-0.07-0.21-0.24
	c0.02-0.13,0-0.25-0.02-0.39c-0.1-0.93,0.03-1.19-0.79-1.43c-0.18-0.05-0.28-0.03-0.3-0.07c-0.06-0.13,0.73-0.85,1.1-1.52
	c0.27-0.49,0.3-0.95,0.52-1.36c0.21-0.39,1.12-1.4,1.47-1.67c1.14-0.88,4.06-1.76,4.62-1.41c0.18,0.11,0.75,0.98,1.09,1.49
	c0.17,0.25,0.34,0.44,0.67,0.67c0.75,0.51,2.32,1.2,2.32,1.2s-0.35,0.5-0.52,1.05c-0.37,1.16-0.03,2.15,0.06,2.65
	c0.26,1.41,0.08,1.54,1.27,2.63c1.34,1.22,2.62,1.68,4.68,1.94c1.29,0.17,3.13,0.33,3.13,0.33s-0.07,0.58-0.1,1.06
	c-0.16,2.07,0.22,3.34-0.92,4.59c-0.78,0.86-2.05,0.85-3.25,0.37c-1.15-0.46-1.42-0.72-2.72-0.74
	C26.55,43.37,25.02,43.5,24.31,43.36z M39.32,48.72c-0.29,0.16-1.84,0.6-2.28,0.64c-2.27,0.22-5.24-0.12-7.07-1
	c-1.23-0.59-1.96-1.3-2.9-2.45c-0.02-0.02,0.03-0.07,0.08-0.1c0.41-0.28,2.46-0.25,2.72-0.23c0.27,0.02,0.51,0.07,0.76,0.17
	c0.77,0.31,0.95,0.59,1.7,0.59c1.1,0,1.72-0.31,2.36-1.34c0.2-0.33,0.34-0.6,0.43-0.59c0.12,0.02,0.21,0.47,0.44,0.95
	c0.62,1.3,1.92,2.69,3.28,2.77c0.42,0.03,0.92-0.06,1.01,0.04C39.95,48.28,39.6,48.57,39.32,48.72z M58.19,35.88
	c0.18,0.48,0.64,1.07,0.63,1.38c0,0.11-0.05,0.29-0.08,0.31c-0.07,0.03-0.6-0.26-0.76-0.44c-0.11-0.12-0.15-0.26-0.34-0.4
	c-0.16-0.11-0.43-0.22-0.43-0.22s-0.1,0.19-0.15,0.35c-0.11,0.37,0.06,0.58-0.03,1.03c-0.02,0.09-0.05,0.19-0.05,0.19
	s-1.44-0.14-2.6-0.25c-1.64-0.15-3.62-0.24-4.51-0.2c-0.37,0.02-0.76,0.04-1.13,0.04c-1.13,0-2.73-0.24-3.87,0.03
	c-0.12,0.03-0.16,0.05-0.24,0.16c-0.03,0.04-0.06,0.09-0.05,0.11c0.01,0.02,0.06,0.01,0.07,0.03c0.01,0.01,0.01,0.03,0.01,0.06
	c0.02,0.1,0.19,0.15,0.37,0.19c0.56,0.13,4.71-0.11,8.69,0c1.58,0.05,3.42,0.22,3.42,0.22s0.13,0.67,0.05,1.35
	c-0.09,0.74-0.51,1.63-0.51,1.63s-0.47-0.31-0.82-0.43c-0.23-0.08-0.6-0.03-0.89,0.02c-0.28,0.04-2.31-0.23-3.21-0.43
	c-3.74-0.83-3.97-0.77-7.32-1.02c-0.55-0.04-2.16-0.24-2.43,0.04c-0.17,0.17-0.17,0.56-0.05,0.74c0.08,0.12,0.24,0.21,0.41,0.3
	c0.64,0.32,5.32,1.4,7.65,2.19c1.29,0.43,2.02,0.88,3.14,1.73c1.15,0.87,1.04,0.88-0.24,1.62c-1.36,0.78-2.46,1.38-3.63,1.32
	c-0.89-0.04-2.15-0.54-3.17-0.63c-0.24-0.02-0.47-0.02-0.73,0c-0.91,0.07-1.2,0.18-1.9-0.01c-1.66-0.47-1.99-1.02-3.25-0.92
	c-1.04,0.08-1.41,0.29-2.09,0.08c-0.98-0.31-1.73-1.24-2.08-2.32c-0.17-0.51-0.37-1.45-0.31-1.93c0.07-0.62,0.45-1.32,0.57-1.99
	c0.13-0.73-0.01-1.51,0.14-1.69c0.14-0.17,0.52-0.09,1-0.24c0.69-0.22,1.62-0.96,2.34-1.24c0.14-0.05,0.28-0.09,0.43-0.12
	c1.61-0.29,1.68,0.02,2.99-0.71c0.66-0.37,1.27-1,1.5-1.7c0.81-2.42,0.72-2.38,2.15-3.22c0.31-0.18,1.08-0.9,1.27-1.19
	c0.83-1.25,1.26-2.28,1.92-2.46c0.25-0.07,2.02,0.02,2.69,0.13c2.12,0.35,3.9,1.06,5.01,2.59c0.24,0.33,1.58,3.38,2.33,5.09
	c0.09,0.2,0.09,0.22,0.07,0.28l-0.05,0.12c0,0-0.33-0.12-0.59-0.24c-0.68-0.33-0.96-0.8-1.12-0.81
	C58.29,34.35,57.91,35.14,58.19,35.88z M61.3,38.44c-0.02,0.04-0.05,0.04-0.26,0.03l-0.76-0.05c0,0-0.25-0.79-0.51-1.37
	c-0.27-0.61-0.7-1.21-0.45-1.3c0.41-0.14,1.51,1.72,1.82,2.19C61.31,38.19,61.38,38.3,61.3,38.44z"/>
</svg>
